# xmcd
#
# Track frame offsets: 
#        150
#        1015
#        23155
#        49811
#        80249
#        107116
#        144483
#        168547
#        187145
#        198357
#        217669
#
# Disc length: 3167 seconds
#
# Revision: 1
# Processed by: cddbd v1.5.2PL0 Copyright (c) Steve Scherf et al.
# Submitted via: ExactAudioCopyFreeDBPlugin 1.0
#
DISCID=920c5d0b
DTITLE=Otis Clay - Respect Yourself (Live At The Lucerne Blues Festiva
DTITLE=l)
DYEAR=2005
DGENRE=Soul
TTITLE0=Introduction
TTITLE1=You're The One
TTITLE2=When Hearts Grow Cold
TTITLE3=Nickel And Nail
TTITLE4=Sho Wasn't Me
TTITLE5=For The Good Times
TTITLE6=I Can Take You To Heaven Tonight
TTITLE7=Amen-This Little Light Of Mine
TTITLE8=Love and Happiness
TTITLE9=I Wanna Testify
TTITLE10=Respect Yourself
EXTD=
EXTT0=
EXTT1=
EXTT2=
EXTT3=
EXTT4=
EXTT5=
EXTT6=
EXTT7=
EXTT8=
EXTT9=
EXTT10=
PLAYORDER=
